<?xml version="1.0" encoding="UTF-8" standalone="no"?> <!-- Created with Vectornator for iOS (http://vectornator.io/) --><!DOCTYPE svg PUBLIC "-//W3C//DTD SVG 1.1//EN" "http://www.w3.org/Graphics/SVG/1.1/DTD/svg11.dtd">
<svg height="100%" style="fill-rule:nonzero;clip-rule:evenodd;stroke-linecap:round;stroke-linejoin:round;" xmlns:xlink="http://www.w3.org/1999/xlink" xmlns="http://www.w3.org/2000/svg" xml:space="preserve" width="100%" xmlns:vectornator="http://vectornator.io" version="1.1" viewBox="0 0 16 16">
<metadata>
<vectornator:setting key="DimensionsVisible" value="1"/>
<vectornator:setting key="TimeLapseWatermarkDisabled" value="0"/>
<vectornator:setting key="doHistoryDisabled" value="0"/>
<vectornator:setting key="RulersVisible" value="1"/>
<vectornator:setting key="SnapToGuides" value="1"/>
<vectornator:setting key="SnapToPoints" value="0"/>
<vectornator:setting key="SnapToGrid" value="0"/>
<vectornator:setting key="Units" value="Points"/>
<vectornator:setting key="DisplayWhiteBackground" value="0"/>
<vectornator:setting key="SnapToEdges" value="0"/>
<vectornator:setting key="IsolateActiveLayer" value="0"/>
<vectornator:setting key="GuidesVisible" value="1"/>
<vectornator:setting key="PencilOnly" value="0"/>
<vectornator:setting key="OutlineMode" value="0"/>
<vectornator:setting key="DynamicGuides" value="0"/>
<vectornator:setting key="CMYKEnabledKey" value="0"/>
</metadata>
<defs/>
<g id="Chocolat" vectornator:layerName="Chocolat">
<g opacity="1">
<path d="M4.89276+0.658096L10.739+0.658096C10.9597+0.658096+11.1385+0.836945+11.1385+1.05757L11.1385+13.2519C11.1385+13.4725+10.9597+13.6514+10.739+13.6514L4.89276+13.6514C4.67214+13.6514+4.49329+13.4725+4.49329+13.2519L4.49329+1.05757C4.49329+0.836945+4.67214+0.658096+4.89276+0.658096Z" fill-rule="evenodd" fill="#563320" opacity="1"/>
<path d="" fill-rule="evenodd" fill="#000000" opacity="1"/>
</g>
<g opacity="1">
<path d="M25.6035+21.484L26.7388+21.484C26.9595+21.484+27.1383+21.6629+27.1383+21.8835L27.1383+23.2156C27.1383+23.4362+26.9595+23.6151+26.7388+23.6151L25.6035+23.6151C25.3829+23.6151+25.2041+23.4362+25.2041+23.2156L25.2041+21.8835C25.2041+21.6629+25.3829+21.484+25.6035+21.484Z" fill-rule="evenodd" fill="#683a21" opacity="1"/>
<path d="" fill-rule="evenodd" fill="#000000" opacity="1"/>
</g>
<g opacity="1">
<path d="M28.6657+21.4438L29.801+21.4438C30.0217+21.4438+30.2005+21.6227+30.2005+21.8433L30.2005+23.1754C30.2005+23.396+30.0217+23.5748+29.801+23.5748L28.6657+23.5748C28.4451+23.5748+28.2663+23.396+28.2663+23.1754L28.2663+21.8433C28.2663+21.6227+28.4451+21.4438+28.6657+21.4438Z" fill-rule="evenodd" fill="#683a21" opacity="1"/>
<path d="" fill-rule="evenodd" fill="#000000" opacity="1"/>
</g>
<g opacity="1">
<path d="M25.6063+23.9681L26.7416+23.9681C26.9622+23.9681+27.141+24.1469+27.141+24.3676L27.141+25.6996C27.141+25.9203+26.9622+26.0991+26.7416+26.0991L25.6063+26.0991C25.3856+26.0991+25.2068+25.9203+25.2068+25.6996L25.2068+24.3676C25.2068+24.1469+25.3856+23.9681+25.6063+23.9681Z" fill-rule="evenodd" fill="#683a21" opacity="1"/>
<path d="" fill-rule="evenodd" fill="#000000" opacity="1"/>
</g>
<g opacity="1">
<path d="M28.6741+23.9757L29.8094+23.9757C30.03+23.9757+30.2089+24.1545+30.2089+24.3751L30.2089+25.7072C30.2089+25.9278+30.03+26.1067+29.8094+26.1067L28.6741+26.1067C28.4535+26.1067+28.2746+25.9278+28.2746+25.7072L28.2746+24.3751C28.2746+24.1545+28.4535+23.9757+28.6741+23.9757Z" fill-rule="evenodd" fill="#683a21" opacity="1"/>
<path d="" fill-rule="evenodd" fill="#000000" opacity="1"/>
</g>
<g opacity="1">
<path d="M25.6064+26.477L26.7417+26.477C26.9624+26.477+27.1412+26.6558+27.1412+26.8764L27.1412+28.2085C27.1412+28.4291+26.9624+28.608+26.7417+28.608L25.6064+28.608C25.3858+28.608+25.207+28.4291+25.207+28.2085L25.207+26.8764C25.207+26.6558+25.3858+26.477+25.6064+26.477Z" fill-rule="evenodd" fill="#683a21" opacity="1"/>
<path d="" fill-rule="evenodd" fill="#000000" opacity="1"/>
</g>
<g opacity="1">
<path d="M28.6686+26.4368L29.8039+26.4368C30.0246+26.4368+30.2034+26.6156+30.2034+26.8362L30.2034+28.1683C30.2034+28.3889+30.0246+28.5678+29.8039+28.5678L28.6686+28.5678C28.448+28.5678+28.2692+28.3889+28.2692+28.1683L28.2692+26.8362C28.2692+26.6156+28.448+26.4368+28.6686+26.4368Z" fill-rule="evenodd" fill="#683a21" opacity="1"/>
<path d="" fill-rule="evenodd" fill="#000000" opacity="1"/>
</g>
<g opacity="1">
<path d="M25.6092+28.961L26.7445+28.961C26.9651+28.961+27.1439+29.1399+27.1439+29.3605L27.1439+30.6926C27.1439+30.9132+26.9651+31.092+26.7445+31.092L25.6092+31.092C25.3885+31.092+25.2097+30.9132+25.2097+30.6926L25.2097+29.3605C25.2097+29.1399+25.3885+28.961+25.6092+28.961Z" fill-rule="evenodd" fill="#683a21" opacity="1"/>
<path d="" fill-rule="evenodd" fill="#000000" opacity="1"/>
</g>
<g opacity="1">
<path d="M28.677+28.9686L29.8123+28.9686C30.0329+28.9686+30.2118+29.1474+30.2118+29.3681L30.2118+30.7001C30.2118+30.9208+30.0329+31.0996+29.8123+31.0996L28.677+31.0996C28.4564+31.0996+28.2775+30.9208+28.2775+30.7001L28.2775+29.3681C28.2775+29.1474+28.4564+28.9686+28.677+28.9686Z" fill-rule="evenodd" fill="#683a21" opacity="1"/>
<path d="" fill-rule="evenodd" fill="#000000" opacity="1"/>
</g>
<g opacity="1">
<path d="M5.62564+1.47201L6.76095+1.47201C6.98157+1.47201+7.16042+1.65086+7.16042+1.87148L7.16042+3.20356C7.16042+3.42418+6.98157+3.60303+6.76095+3.60303L5.62564+3.60303C5.40502+3.60303+5.22617+3.42418+5.22617+3.20356L5.22617+1.87148C5.22617+1.65086+5.40502+1.47201+5.62564+1.47201Z" fill-rule="evenodd" fill="#683a21" opacity="1"/>
<path d="" fill-rule="evenodd" fill="#000000" opacity="1"/>
</g>
<g opacity="1">
<path d="M8.73935+1.44383L9.87467+1.44383C10.0953+1.44383+10.2741+1.62268+10.2741+1.8433L10.2741+3.17537C10.2741+3.396+10.0953+3.57484+9.87467+3.57484L8.73935+3.57484C8.51873+3.57484+8.33988+3.396+8.33988+3.17537L8.33988+1.8433C8.33988+1.62268+8.51873+1.44383+8.73935+1.44383Z" fill-rule="evenodd" fill="#683a21" opacity="1"/>
<path d="" fill-rule="evenodd" fill="#000000" opacity="1"/>
</g>
<g opacity="1">
<path d="M5.61284+3.93238L6.74815+3.93238C6.96877+3.93238+7.14762+4.11123+7.14762+4.33185L7.14762+5.66393C7.14762+5.88455+6.96877+6.0634+6.74815+6.0634L5.61284+6.0634C5.39222+6.0634+5.21337+5.88455+5.21337+5.66393L5.21337+4.33185C5.21337+4.11123+5.39222+3.93238+5.61284+3.93238Z" fill-rule="evenodd" fill="#683a21" opacity="1"/>
<path d="" fill-rule="evenodd" fill="#000000" opacity="1"/>
</g>
<g opacity="1">
<path d="M8.78559+3.93238L9.92091+3.93238C10.1415+3.93238+10.3204+4.11123+10.3204+4.33185L10.3204+5.66392C10.3204+5.88455+10.1415+6.06339+9.92091+6.06339L8.78559+6.06339C8.56497+6.06339+8.38612+5.88455+8.38612+5.66392L8.38612+4.33185C8.38612+4.11123+8.56497+3.93238+8.78559+3.93238Z" fill-rule="evenodd" fill="#683a21" opacity="1"/>
<path d="" fill-rule="evenodd" fill="#000000" opacity="1"/>
</g>
<g opacity="1">
<path d="M5.66113+6.5042L6.79645+6.5042C7.01707+6.5042+7.19592+6.68305+7.19592+6.90367L7.19592+8.23575C7.19592+8.45637+7.01707+8.63522+6.79645+8.63522L5.66113+8.63522C5.44051+8.63522+5.26166+8.45637+5.26166+8.23575L5.26166+6.90367C5.26166+6.68305+5.44051+6.5042+5.66113+6.5042Z" fill-rule="evenodd" fill="#683a21" opacity="1"/>
<path d="" fill-rule="evenodd" fill="#000000" opacity="1"/>
</g>
<g opacity="1">
<path d="M8.77616+6.3884L9.91147+6.3884C10.1321+6.3884+10.3109+6.56725+10.3109+6.78787L10.3109+8.11994C10.3109+8.34057+10.1321+8.51941+9.91147+8.51941L8.77616+8.51941C8.55554+8.51941+8.37669+8.34057+8.37669+8.11994L8.37669+6.78787C8.37669+6.56725+8.55554+6.3884+8.77616+6.3884Z" fill-rule="evenodd" fill="#683a21" opacity="1"/>
<path d="" fill-rule="evenodd" fill="#000000" opacity="1"/>
</g>
<g opacity="1">
<path d="M5.60916+8.96103L6.74447+8.96103C6.9651+8.96103+7.14394+9.13988+7.14394+9.3605L7.14394+10.6926C7.14394+10.9132+6.9651+11.092+6.74447+11.092L5.60916+11.092C5.38854+11.092+5.20969+10.9132+5.20969+10.6926L5.20969+9.3605C5.20969+9.13988+5.38854+8.96103+5.60916+8.96103Z" fill-rule="evenodd" fill="#683a21" opacity="1"/>
<path d="" fill-rule="evenodd" fill="#000000" opacity="1"/>
</g>
<g opacity="1">
<path d="M8.67699+8.9686L9.8123+8.9686C10.0329+8.9686+10.2118+9.14745+10.2118+9.36807L10.2118+10.7001C10.2118+10.9208+10.0329+11.0996+9.8123+11.0996L8.67699+11.0996C8.45637+11.0996+8.27752+10.9208+8.27752+10.7001L8.27752+9.36807C8.27752+9.14745+8.45637+8.9686+8.67699+8.9686Z" fill-rule="evenodd" fill="#683a21" opacity="1"/>
<path d="" fill-rule="evenodd" fill="#000000" opacity="1"/>
</g>
</g>
<g id="Paquet du chocolat" vectornator:layerName="Paquet du chocolat">
<g vectornator:shadowOffset="10" vectornator:shadowOpacity="0.333" vectornator:shadowAngle="0.532206" vectornator:shadowColor="#000000" opacity="1" vectornator:shadowRadius="10">
<path fill-rule="evenodd" vectornator:shadowColor="#000000" vectornator:shadowOpacity="0.333" vectornator:shadowRadius="10" d="M4.62135+8.02256L10.9653+8.02256C11.2725+8.02256+11.5216+8.26205+11.5216+8.55748L11.5216+14.2405C11.5216+14.5359+11.2725+14.7754+10.9653+14.7754L4.62135+14.7754C4.31413+14.7754+4.06508+14.5359+4.06508+14.2405L4.06508+8.55748C4.06508+8.26205+4.31413+8.02256+4.62135+8.02256Z" vectornator:shadowOffset="10" fill="#000000" opacity="1" vectornator:shadowAngle="0.532206"/>
<path vectornator:shadowColor="#000000" vectornator:shadowOpacity="0.333" vectornator:shadowRadius="10" d="" vectornator:shadowOffset="10" fill="none" opacity="1" vectornator:shadowAngle="0.532206"/>
</g>
<g opacity="1">
<path d="M25.6732+21.4497L26.8085+21.4497C27.0292+21.4497+27.208+21.6286+27.208+21.8492L27.208+23.1813C27.208+23.4019+27.0292+23.5807+26.8085+23.5807L25.6732+23.5807C25.4526+23.5807+25.2738+23.4019+25.2738+23.1813L25.2738+21.8492C25.2738+21.6286+25.4526+21.4497+25.6732+21.4497Z" fill-rule="evenodd" fill="#683a21" opacity="1"/>
<path d="" fill-rule="evenodd" fill="#000000" opacity="1"/>
</g>
<g opacity="1">
<path d="M25.6732+21.4497L26.8085+21.4497C27.0292+21.4497+27.208+21.6286+27.208+21.8492L27.208+23.1813C27.208+23.4019+27.0292+23.5807+26.8085+23.5807L25.6732+23.5807C25.4526+23.5807+25.2738+23.4019+25.2738+23.1813L25.2738+21.8492C25.2738+21.6286+25.4526+21.4497+25.6732+21.4497Z" fill-rule="evenodd" fill="#683a21" opacity="1"/>
<path d="" fill-rule="evenodd" fill="#000000" opacity="1"/>
</g>
</g>
<g id="Willy Wonka" vectornator:layerName="Willy Wonka">
<g opacity="1"/>
</g>
<g id="Texte Paradis de Willy Wonka" vectornator:layerName="Texte Paradis de Willy Wonka">
<path d="M5.09719+12.3905L5.45417+12.4153L5.29191+12.6068L4.66855+12.5705L4.84298+12.3658L4.98902+12.3856C5.099+12.3009+5.16661+12.1276+5.19185+11.8657L5.20672+11.7056L5.32166+10.4545C4.91149+10.5491+4.70641+10.7378+4.70641+11.0206C4.70641+11.134+4.72579+11.2346+4.76455+11.3227L4.54685+11.557C4.52792+11.4723+4.51845+11.3865+4.51845+11.2996C4.51845+11.0003+4.62257+10.7563+4.83081+10.5676C5.03905+10.3789+5.30859+10.2845+5.63942+10.2845C6.08294+10.2845+6.3047+10.4617+6.3047+10.816C6.3047+11.0404+6.22222+11.2324+6.05725+11.392C5.89228+11.5515+5.68314+11.6407+5.42983+11.6594C5.4082+11.9158+5.3798+12.083+5.34464+12.1611C5.30949+12.2393+5.227+12.3157+5.09719+12.3905ZM5.54071+10.4347L5.44471+11.4877C5.49519+11.4987+5.53936+11.5042+5.57722+11.5042C5.92248+11.5042+6.09511+11.3199+6.09511+10.9513C6.09511+10.6069+5.91031+10.4347+5.54071+10.4347Z" opacity="1" fill="#fffdfd"/>
<path d="M6.88982+12.6147C6.90514+12.4827+6.9128+12.2851+6.9128+12.0222C6.9128+11.4984+6.89365+11.1155+6.85533+10.8734C6.81702+10.6314+6.75595+10.5103+6.67211+10.5103C6.61802+10.5103+6.56574+10.545+6.51526+10.6143C6.46478+10.6836+6.43322+10.7639+6.4206+10.8553C6.38364+10.8454+6.36516+10.8256+6.36516+10.7959C6.36516+10.6836+6.40956+10.5667+6.49836+10.4451C6.58715+10.3235+6.67256+10.2627+6.7546+10.2627C6.83753+10.2627+6.90041+10.3015+6.94323+10.3791C6.98605+10.4567+7.02323+10.5994+7.05478+10.8074C7.10256+11.1166+7.12645+11.4731+7.12645+11.8769L7.1278+11.9925L7.32252+11.5303L7.40906+11.3273L7.53481+11.0253C7.60693+10.8536+7.65516+10.7161+7.6795+10.6126L7.88638+10.3717C7.88007+10.4553+7.87692+10.5268+7.87692+10.5862C7.87692+10.7733+7.90802+11.072+7.97022+11.4825L7.98644+11.5897L8.01349+11.7614C8.03152+11.8791+8.04955+12.0062+8.06758+12.1427C8.09372+12.0832+8.10994+12.0447+8.11625+12.0271L8.22578+11.7498L8.3583+11.4214C8.46827+11.143+8.52326+10.9257+8.52326+10.7694C8.52326+10.6638+8.48766+10.5835+8.41644+10.5285L8.61521+10.2627C8.70716+10.3365+8.75314+10.425+8.75314+10.5285C8.75314+10.666+8.65848+10.962+8.46918+11.4164C8.43763+11.4924+8.39976+11.5848+8.35559+11.6937L8.29745+11.839L8.23795+12.0057L8.15952+12.2202C8.15321+12.2389+8.13879+12.2829+8.11625+12.3523L7.90802+12.6213L7.90261+12.5487C7.88458+12.3176+7.85077+12.0442+7.80119+11.7284L7.78497+11.6294L7.76198+11.4825C7.74485+11.3757+7.73358+11.2976+7.72817+11.2481L7.70248+11.022C7.70068+11.0055+7.69617+10.967+7.68896+10.9064L7.50642+11.3488L7.43204+11.5287C7.29592+11.8544+7.19181+12.1256+7.11969+12.3424L6.88982+12.6147Z" opacity="1" fill="#fffdfd"/>
<path d="M9.36877+12.6365C9.38409+12.5044+9.39176+12.3069+9.39176+12.0439C9.39176+11.5202+9.3726+11.1373+9.33429+10.8952C9.29598+10.6531+9.2349+10.5321+9.15107+10.5321C9.09698+10.5321+9.04469+10.5667+8.99421+10.6361C8.94373+10.7054+8.91218+10.7857+8.89956+10.877C8.8626+10.8671+8.84412+10.8473+8.84412+10.8176C8.84412+10.7054+8.88852+10.5885+8.97731+10.4669C9.0661+10.3453+9.15152+10.2845+9.23355+10.2845C9.31648+10.2845+9.37936+10.3233+9.42218+10.4009C9.465+10.4784+9.50219+10.6212+9.53374+10.8292C9.58151+11.1384+9.6054+11.4949+9.6054+11.8987L9.60675+12.0142L9.80147+11.5521L9.88801+11.3491L10.0138+11.047C10.0859+10.8754+10.1341+10.7378+10.1584+10.6344L10.3653+10.3934C10.359+10.4771+10.3559+10.5486+10.3559+10.608C10.3559+10.7951+10.387+11.0938+10.4492+11.5042L10.4654+11.6115L10.4924+11.7832C10.5105+11.9009+10.5285+12.028+10.5465+12.1644C10.5727+12.105+10.5889+12.0665+10.5952+12.0489L10.7047+11.7716L10.8373+11.4432C10.9472+11.1648+11.0022+10.9475+11.0022+10.7912C11.0022+10.6856+10.9666+10.6053+10.8954+10.5502L11.0942+10.2845C11.1861+10.3582+11.2321+10.4468+11.2321+10.5502C11.2321+10.6878+11.1374+10.9838+10.9481+11.4382C10.9166+11.5141+10.8787+11.6066+10.8345+11.7155L10.7764+11.8607L10.7169+12.0274L10.6385+12.242C10.6322+12.2607+10.6177+12.3047+10.5952+12.374L10.387+12.6431L10.3816+12.5705C10.3635+12.3394+10.3297+12.0659+10.2801+11.7502L10.2639+11.6511L10.2409+11.5042C10.2238+11.3975+10.2125+11.3194+10.2071+11.2699L10.1814+11.0437C10.1796+11.0272+10.1751+10.9887+10.1679+10.9282L9.98537+11.3705L9.911+11.5504C9.77488+11.8761+9.67076+12.1474+9.59864+12.3641L9.36877+12.6365Z" opacity="1" fill="#fffdfd"/>
</g>
</svg>
